<?xml version="1.0" standalone="no"?>
<!DOCTYPE svg PUBLIC "-//W3C//DTD SVG 20010904//EN"
 "http://www.w3.org/TR/2001/REC-SVG-20010904/DTD/svg10.dtd">
<svg version="1.0" xmlns="http://www.w3.org/2000/svg"
 width="499.000000pt" height="500.000000pt" viewBox="0 0 499.000000 500.000000"
 preserveAspectRatio="xMidYMid meet">

<g transform="translate(0.000000,500.000000) scale(0.100000,-0.100000)"
fill="#000000" stroke="none">
<path d="M2240 4984 c-728 -90 -1339 -442 -1759 -1014 -244 -332 -403 -729
-462 -1160 -17 -122 -17 -517 -1 -625 68 -430 188 -747 407 -1075 382 -570
976 -956 1650 -1070 674 -114 1366 53 1910 460 517 388 864 957 969 1590 91
550 -3 1106 -273 1605 -316 585 -881 1033 -1525 1209 -231 64 -342 78 -626 81
-140 2 -271 1 -290 -1z m433 -544 c232 -19 440 -77 652 -180 451 -220 812
-614 990 -1081 38 -98 97 -324 116 -444 19 -121 17 -388 -5 -520 -104 -629
-527 -1199 -1091 -1470 -477 -229 -926 -262 -1410 -104 -423 138 -814 430
-1053 786 -163 243 -283 552 -323 831 -19 135 -6 430 25 577 149 704 675 1309
1321 1520 161 53 281 75 455 85 199 10 195 10 323 0z"/>
<path d="M2914 3158 l-741 -371 -371 -744 c-205 -409 -372 -745 -372 -748 0
-3 336 163 748 369 l747 374 372 746 c205 410 370 746 365 745 -4 0 -340 -167
-748 -371z m-254 -1101 c-6 -6 -929 -467 -934 -467 -2 0 103 212 232 470 l237
470 234 -234 c130 -130 233 -237 231 -239z"/>
</g>
</svg>
